<?xml version="1.0" encoding="iso-8859-1"?>
<!-- Generator: Adobe Illustrator 16.0.0, SVG Export Plug-In . SVG Version: 6.00 Build 0)  -->
<!DOCTYPE svg PUBLIC "-//W3C//DTD SVG 1.1//EN" "http://www.w3.org/Graphics/SVG/1.1/DTD/svg11.dtd">
<svg version="1.1" id="Capa_1" xmlns="http://www.w3.org/2000/svg" xmlns:xlink="http://www.w3.org/1999/xlink" x="0px" y="0px"
	 width="612px" height="612px" viewBox="0 0 612 612" style="enable-background:new 0 0 612 612;" xml:space="preserve">
<g>
	<g>
		<path d="M497.25,317.012c-10.763-2.482-21.951-3.84-33.469-3.84c-3.218,0-6.397,0.139-9.562,0.34
			c-73.436,4.681-132.292,62.815-138.135,135.926c-0.315,3.949-0.521,7.923-0.521,11.953c0,12.369,1.539,24.375,4.394,35.859
			c16.037,64.527,74.335,112.359,143.825,112.359C545.641,609.609,612,543.25,612,461.391
			C612,391.049,562.982,332.191,497.25,317.012z M463.781,559.406c-54.133,0-98.016-43.883-98.016-98.016
			s43.883-98.016,98.016-98.016s98.016,43.883,98.016,98.016S517.914,559.406,463.781,559.406z"/>
		<path d="M449.438,537.891c50.213,0,90.844-40.631,90.844-90.844h-90.844V537.891z"/>
		<path d="M124.312,114.75c9.228,0,16.734-7.507,16.734-16.734V57.375v-38.25c0-9.228-7.506-16.734-16.734-16.734h-14.344
			c-9.228,0-16.734,7.507-16.734,16.734v38.25v40.641c0,9.228,7.506,16.734,16.734,16.734H124.312z"/>
		<path d="M387.281,114.75c9.228,0,16.734-7.507,16.734-16.734V57.375v-38.25c0-9.228-7.507-16.734-16.734-16.734h-14.344
			c-9.228,0-16.734,7.507-16.734,16.734v38.25v40.641c0,9.228,7.507,16.734,16.734,16.734H387.281z"/>
		<path d="M285.666,497.25c-2.333-11.6-3.572-23.586-3.572-35.859c0-4.021,0.177-7.999,0.435-11.953H71.719
			c-15.845,0-28.688-12.843-28.688-28.688v-229.5h411.188v88.707c3.165-0.163,6.354-0.253,9.562-0.253
			c11.437,0,22.61,1.109,33.469,3.141V95.625c0-21.124-17.126-38.25-38.25-38.25h-31.078v40.641c0,22.41-18.23,40.641-40.641,40.641
			h-14.344c-22.41,0-40.641-18.231-40.641-40.641V57.375H164.953v40.641c0,22.41-18.231,40.641-40.641,40.641h-14.344
			c-22.41,0-40.641-18.231-40.641-40.641V57.375H38.25C17.126,57.375,0,74.501,0,95.625V459c0,21.124,17.126,38.25,38.25,38.25
			H285.666z"/>
		<circle cx="134.774" cy="262.969" r="37.954"/>
		<circle cx="248.625" cy="262.969" r="37.954"/>
		<circle cx="362.477" cy="262.969" r="37.954"/>
		<circle cx="248.625" cy="377.719" r="37.953"/>
		<circle cx="134.774" cy="377.719" r="37.953"/>
	</g>
</g>
<g>
</g>
<g>
</g>
<g>
</g>
<g>
</g>
<g>
</g>
<g>
</g>
<g>
</g>
<g>
</g>
<g>
</g>
<g>
</g>
<g>
</g>
<g>
</g>
<g>
</g>
<g>
</g>
<g>
</g>
</svg>
